<svg xmlns="http://www.w3.org/2000/svg" xmlns:inkscape="http://www.inkscape.org/namespaces/inkscape" xmlns:xlink="http://www.w3.org/1999/xlink" width="800px" height="600px">

<g inkscape:groupmode="layer" id="Tue Jun  2 20:44:38 2015">

<g id="Plane">  <!-- start Plane -->

<g id="caras_bordes.Plane" stroke-width="1.0px" stroke-linejoin="miter" stroke-linecap="round">
  <polygon stroke="rgb(6,4,127)" fill="rgb(6,4,127)" points="426.9697,323.6008 492.2516,290.9598 426.9696,258.3189 361.6877,290.9599 " />
  <polygon stroke="rgb(6,4,127)" fill="rgb(6,4,127)" points="492.2517,356.2417 557.5336,323.6007 492.2516,290.9598 426.9697,323.6008 " />
  <polygon stroke="rgb(6,4,127)" fill="rgb(6,4,127)" points="361.6878,356.2417 426.9697,323.6008 361.6877,290.9599 296.4058,323.6008 " />
  <polygon stroke="rgb(6,4,127)" fill="rgb(6,4,127)" points="557.5336,388.8826 622.8156,356.2416 557.5336,323.6007 492.2517,356.2417 " />
  <polygon stroke="rgb(6,4,127)" fill="rgb(6,4,127)" points="426.9698,388.8826 492.2517,356.2417 426.9697,323.6008 361.6878,356.2417 " />
  <polygon stroke="rgb(6,4,127)" fill="rgb(6,4,127)" points="296.4059,388.8827 361.6878,356.2417 296.4058,323.6008 231.1239,356.2418 " />
  <polygon stroke="rgb(6,4,127)" fill="rgb(6,4,127)" points="622.8156,421.5235 688.0975,388.8825 622.8156,356.2416 557.5336,388.8826 " />
  <polygon stroke="rgb(6,4,127)" fill="rgb(6,4,127)" points="492.2517,421.5235 557.5336,388.8826 492.2517,356.2417 426.9698,388.8826 " />
  <polygon stroke="rgb(6,4,127)" fill="rgb(6,4,127)" points="361.6879,421.5236 426.9698,388.8826 361.6878,356.2417 296.4059,388.8827 " />
  <polygon stroke="rgb(6,4,127)" fill="rgb(6,4,127)" points="231.124,421.5237 296.4059,388.8827 231.1239,356.2418 165.842,388.8828 " />
  <polygon stroke="rgb(6,4,127)" fill="rgb(6,4,127)" points="557.5338,454.1644 622.8156,421.5235 557.5336,388.8826 492.2517,421.5235 " />
  <polygon stroke="rgb(6,4,127)" fill="rgb(6,4,127)" points="426.9698,454.1645 492.2517,421.5235 426.9698,388.8826 361.6879,421.5236 " />
  <polygon stroke="rgb(6,4,127)" fill="rgb(6,4,127)" points="296.4059,454.1645 361.6879,421.5236 296.4059,388.8827 231.124,421.5237 " />
  <polygon stroke="rgb(6,4,127)" fill="rgb(6,4,127)" points="165.8421,454.1646 231.124,421.5237 165.842,388.8828 100.5601,421.5237 " />
  <polygon stroke="rgb(6,4,127)" fill="rgb(6,4,127)" points="492.2518,486.8054 557.5338,454.1644 492.2517,421.5235 426.9698,454.1645 " />
  <polygon stroke="rgb(6,4,127)" fill="rgb(6,4,127)" points="361.6879,486.8055 426.9698,454.1645 361.6879,421.5236 296.4059,454.1645 " />
  <polygon stroke="rgb(6,4,127)" fill="rgb(6,4,127)" points="231.1241,486.8055 296.4059,454.1645 231.124,421.5237 165.8421,454.1646 " />
  <polygon stroke="rgb(6,4,127)" fill="rgb(6,4,127)" points="426.9699,519.4463 492.2518,486.8054 426.9698,454.1645 361.6879,486.8055 " />
  <polygon stroke="rgb(6,4,127)" fill="rgb(6,4,127)" points="296.406,519.4464 361.6879,486.8055 296.4059,454.1645 231.1241,486.8055 " />
  <polygon stroke="rgb(6,4,127)" fill="rgb(6,4,127)" points="361.688,552.0873 426.9699,519.4463 361.6879,486.8055 296.406,519.4464 " />
</g>

</g>  <!-- end Plane -->

<g id="HabitationCyl2">  <!-- start HabitationCyl2 -->

<g id="caras_bordes.HabitationCyl2" stroke-width="1.0px" stroke-linejoin="miter" stroke-linecap="round">
  <polygon stroke="rgb(17,29,43)" fill="rgb(17,29,43)" points="538.5562,279.1017 545.0262,275.8668 535.2122,277.0841 528.7422,280.3191 " />
  <polygon stroke="rgb(39,69,102)" fill="rgb(39,69,102)" points="549.4352,282.4309 555.9052,279.1959 545.0262,275.8668 538.5562,279.1017 " />
  <polygon stroke="rgb(58,102,150)" fill="rgb(58,102,150)" points="560.3141,289.9806 566.7841,286.7456 555.9052,279.1959 549.4352,282.4309 " />
  <polygon stroke="rgb(68,118,174)" fill="rgb(68,118,174)" points="584.6402,343.1505 591.1102,339.9156 589.3871,325.7301 582.9172,328.965 " />
  <polygon stroke="rgb(72,125,184)" fill="rgb(72,125,184)" points="570.1282,301.012 576.5981,297.777 566.7841,286.7456 560.3141,289.9806 " />
  <polygon stroke="rgb(76,133,197)" fill="rgb(76,133,197)" points="582.9172,328.965 589.3871,325.7301 584.3867,311.2101 577.9166,314.4451 " />
  <polygon stroke="rgb(78,136,201)" fill="rgb(78,136,201)" points="577.9166,314.4451 584.3867,311.2101 576.5981,297.777 570.1282,301.012 " />
  <polygon stroke="rgb(17,29,43)" fill="rgb(17,29,43)" points="273.6095,295.1098 281.4232,299.0167 291.2041,300.2299 283.3904,296.323 " />
  <polygon stroke="rgb(39,69,102)" fill="rgb(39,69,102)" points="262.7672,298.4277 270.581,302.3346 281.4232,299.0167 273.6095,295.1098 " />
  <polygon stroke="rgb(11,19,27)" fill="rgb(11,19,27)" points="529.7205,279.5379 560.3141,289.9806 549.4352,282.4309 509.5473,265.5382 " />
  <polygon stroke="rgb(58,102,150)" fill="rgb(58,102,150)" points="251.925,305.952 259.7388,309.8588 270.581,302.3346 262.7672,298.4277 " />
  <polygon stroke="rgb(68,118,174)" fill="rgb(68,118,174)" points="227.681,358.9424 235.4948,362.8493 237.212,348.7117 229.3983,344.8048 " />
  <polygon stroke="rgb(18,31,46)" fill="rgb(18,31,46)" points="574.8293,378.1328 584.6402,343.1505 582.9172,328.965 571.6342,351.8281 " />
  <polygon stroke="rgb(72,125,184)" fill="rgb(72,125,184)" points="242.1441,316.9461 249.9579,320.853 259.7388,309.8588 251.925,305.952 " />
  <polygon stroke="rgb(21,37,55)" fill="rgb(21,37,55)" points="547.9191,299.9937 570.1282,301.012 560.3141,289.9806 529.7205,279.5379 " />
  <polygon stroke="rgb(76,133,197)" fill="rgb(76,133,197)" points="229.3983,344.8048 237.212,348.7117 242.1957,334.2407 234.3819,330.3339 " />
  <polygon stroke="rgb(78,136,201)" fill="rgb(78,136,201)" points="234.3819,330.3339 242.1957,334.2407 249.9579,320.853 242.1441,316.9461 " />
  <polygon stroke="rgb(25,44,65)" fill="rgb(25,44,65)" points="571.6342,351.8281 582.9172,328.965 577.9166,314.4451 562.3615,324.9033 " />
  <polygon stroke="rgb(26,46,68)" fill="rgb(26,46,68)" points="562.3615,324.9033 577.9166,314.4451 570.1282,301.012 547.9191,299.9937 " />
  <polygon stroke="rgb(17,29,43)" fill="rgb(17,29,43)" points="390.2234,308.9402 489.3741,259.3648 471.1755,261.6222 390.0068,302.2065 " />
  <polygon stroke="rgb(2,3,5)" fill="rgb(2,3,5)" points="259.7388,309.8588 282.8469,295.5717 303.02,281.572 270.581,302.3346 " />
  <polygon stroke="rgb(9,15,23)" fill="rgb(9,15,23)" points="235.4948,362.8493 237.7381,394.1666 240.9332,367.862 237.212,348.7117 " />
  <polygon stroke="rgb(12,20,30)" fill="rgb(12,20,30)" points="249.9579,320.853 264.6483,316.0276 282.8469,295.5717 259.7388,309.8588 " />
  <polygon stroke="rgb(15,27,39)" fill="rgb(15,27,39)" points="237.212,348.7117 240.9332,367.862 250.2058,340.9371 242.1957,334.2407 " />
  <polygon stroke="rgb(17,29,43)" fill="rgb(17,29,43)" points="323.1932,275.3986 390.9973,309.3005 390.889,302.4045 341.3917,277.6559 " />
  <polygon stroke="rgb(16,28,42)" fill="rgb(16,28,42)" points="242.1957,334.2407 250.2058,340.9371 264.6483,316.0276 249.9579,320.853 " />
  <polygon stroke="rgb(68,118,174)" fill="rgb(68,118,174)" points="520.2953,405.3998 574.8293,378.1328 571.6342,351.8281 514.357,380.4667 " />
  <polygon stroke="rgb(76,133,197)" fill="rgb(76,133,197)" points="514.357,380.4667 571.6342,351.8281 562.3615,324.9033 495.5302,358.319 " />
  <polygon stroke="rgb(68,118,174)" fill="rgb(68,118,174)" points="237.7381,394.1666 260.9723,405.7837 267.0309,380.9108 240.9332,367.862 " />
  <polygon stroke="rgb(78,136,201)" fill="rgb(78,136,201)" points="495.5302,358.319 562.3615,324.9033 547.9191,299.9937 466.8574,340.5246 " />
  <polygon stroke="rgb(72,125,184)" fill="rgb(72,125,184)" points="466.8574,340.5246 547.9191,299.9937 529.7205,279.5379 430.1059,329.3452 " />
  <polygon stroke="rgb(76,133,197)" fill="rgb(76,133,197)" points="240.9332,367.862 267.0309,380.9108 285.3608,358.5145 250.2058,340.9371 " />
  <polygon stroke="rgb(78,136,201)" fill="rgb(78,136,201)" points="250.2058,340.9371 285.3608,358.5145 314.5405,340.9736 264.6483,316.0276 " />
  <polygon stroke="rgb(72,125,184)" fill="rgb(72,125,184)" points="264.6483,316.0276 314.5405,340.9736 350.4211,329.3587 282.8469,295.5717 " />
  <polygon stroke="rgb(39,69,102)" fill="rgb(39,69,102)" points="303.02,281.572 474.7372,367.4304 494.9105,361.257 430.205,328.9044 390.9973,309.3005 323.1932,275.3986 " />
  <polygon stroke="rgb(39,69,102)" fill="rgb(39,69,102)" points="268.2099,386.207 509.5473,265.5382 489.3741,259.3648 390.2234,308.9402 350.6585,328.7227 248.0367,380.0336 " />
  <polygon stroke="rgb(58,102,150)" fill="rgb(58,102,150)" points="282.8469,295.5717 350.4211,329.3587 389.6403,348.9684 454.5641,381.4301 474.7372,367.4304 303.02,281.572 " />
  <polygon stroke="rgb(58,102,150)" fill="rgb(58,102,150)" points="288.3831,400.2067 390.3463,349.225 430.1059,329.3452 529.7205,279.5379 509.5473,265.5382 268.2099,386.207 " />
  <polygon stroke="rgb(17,29,43)" fill="rgb(17,29,43)" points="430.205,328.9044 494.9105,361.257 513.1089,363.5143 466.3603,340.14 " />
  <polygon stroke="rgb(11,19,28)" fill="rgb(11,19,28)" points="527.5514,373.9814 543.1066,427.7438 548.1071,437.2632 536.824,391.6337 " />
  <polygon stroke="rgb(17,29,43)" fill="rgb(17,29,43)" points="248.0367,380.0336 350.6585,328.7227 314.18,340.12 229.8381,382.291 " />
  <polygon stroke="rgb(3,5,7)" fill="rgb(3,5,7)" points="202.4019,452.4168 206.123,410.4104 202.9279,433.5199 200.6847,464.8372 " />
  <polygon stroke="rgb(30,52,77)" fill="rgb(30,52,77)" points="513.1089,363.5143 535.3182,422.0991 543.1066,427.7438 527.5514,373.9814 " />
  <polygon stroke="rgb(18,31,46)" fill="rgb(18,31,46)" points="207.3856,442.9295 215.3956,392.7581 206.123,410.4104 202.4019,452.4168 " />
  <polygon stroke="rgb(49,86,128)" fill="rgb(49,86,128)" points="494.9105,361.257 525.5042,420.8818 535.3182,422.0991 513.1089,363.5143 " />
  <polygon stroke="rgb(35,61,91)" fill="rgb(35,61,91)" points="215.1478,437.3039 229.8381,382.291 215.3956,392.7581 207.3856,442.9295 " />
  <polygon stroke="rgb(72,125,184)" fill="rgb(72,125,184)" points="389.4993,378.4529 436.3655,401.886 454.5641,381.4301 389.6403,348.9684 " />
  <polygon stroke="rgb(68,118,175)" fill="rgb(68,118,175)" points="474.7372,367.4304 514.6252,424.211 525.5042,420.8818 494.9105,361.257 " />
  <polygon stroke="rgb(17,29,43)" fill="rgb(17,29,43)" points="525.5042,420.8818 531.9741,424.1168 541.7881,425.3341 535.3182,422.0991 " />
  <polygon stroke="rgb(68,118,174)" fill="rgb(68,118,174)" points="389.1198,469.8573 409.4553,480.025 412.6505,453.7204 389.485,442.1377 " />
  <polygon stroke="rgb(61,106,156)" fill="rgb(61,106,156)" points="541.7881,425.3341 531.9741,424.1168 521.0952,427.446 510.2163,434.9957 500.4022,446.0271 492.6138,459.4602 487.6132,473.9801 485.8902,488.1656 556.3002,452.9606 554.5771,440.4982 549.5766,430.9788 " />
  <polygon stroke="rgb(78,136,201)" fill="rgb(78,136,201)" points="389.0168,410.3424 421.9231,426.7955 436.3655,401.886 389.4993,378.4529 " />
  <polygon stroke="rgb(39,69,102)" fill="rgb(39,69,102)" points="514.6252,424.211 521.0952,427.446 531.9741,424.1168 525.5042,420.8818 " />
  <polygon stroke="rgb(72,125,184)" fill="rgb(72,125,184)" points="306.5817,420.6625 390.3056,378.8005 390.3463,349.225 288.3831,400.2067 " />
  <polygon stroke="rgb(53,93,137)" fill="rgb(53,93,137)" points="224.9287,436.0906 248.0367,380.0336 229.8381,382.291 215.1478,437.3039 " />
  <polygon stroke="rgb(76,133,197)" fill="rgb(76,133,197)" points="389.485,442.1377 412.6505,453.7204 421.9231,426.7955 389.0168,410.3424 " />
  <polygon stroke="rgb(83,145,214)" fill="rgb(83,145,214)" points="454.5641,381.4301 503.7463,431.7607 514.6252,424.211 474.7372,367.4304 " />
  <polygon stroke="rgb(90,158,233)" fill="rgb(90,158,233)" points="409.4553,480.025 479.4202,484.9306 481.1432,470.7451 412.6505,453.7204 " />
  <polygon stroke="rgb(58,102,150)" fill="rgb(58,102,150)" points="503.7463,431.7607 510.2163,434.9957 521.0952,427.446 514.6252,424.211 " />
  <polygon stroke="rgb(94,163,241)" fill="rgb(94,163,241)" points="436.3655,401.886 493.9323,442.7921 503.7463,431.7607 454.5641,381.4301 " />
  <polygon stroke="rgb(68,118,174)" fill="rgb(68,118,174)" points="333.4919,498.8016 390.3531,470.3709 390.2626,442.514 330.2968,472.4969 " />
  <polygon stroke="rgb(68,118,174)" fill="rgb(68,118,174)" points="479.4202,484.9306 485.8902,488.1656 487.6132,473.9801 481.1432,470.7451 " />
  <polygon stroke="rgb(78,136,201)" fill="rgb(78,136,201)" points="321.0241,445.5721 390.3355,410.9164 390.3056,378.8005 306.5817,420.6625 " />
  <polygon stroke="rgb(97,170,251)" fill="rgb(97,170,251)" points="412.6505,453.7204 481.1432,470.7451 486.1438,456.2252 421.9231,426.7955 " />
  <polygon stroke="rgb(17,29,43)" fill="rgb(17,29,43)" points="217.115,439.9975 224.9287,436.0906 215.1478,437.3039 207.3341,441.2107 " />
  <polygon stroke="rgb(99,172,254)" fill="rgb(99,172,254)" points="421.9231,426.7955 486.1438,456.2252 493.9323,442.7921 436.3655,401.886 " />
  <polygon stroke="rgb(72,125,184)" fill="rgb(72,125,184)" points="493.9323,442.7921 500.4022,446.0271 510.2163,434.9957 503.7463,431.7607 " />
  <polygon stroke="rgb(70,122,180)" fill="rgb(70,122,180)" points="235.771,439.4086 268.2099,386.207 248.0367,380.0336 224.9287,436.0906 " />
  <polygon stroke="rgb(76,133,197)" fill="rgb(76,133,197)" points="330.2968,472.4969 390.2626,442.514 390.3355,410.9164 321.0241,445.5721 " />
  <polygon stroke="rgb(76,133,197)" fill="rgb(76,133,197)" points="481.1432,470.7451 487.6132,473.9801 492.6138,459.4602 486.1438,456.2252 " />
  <polygon stroke="rgb(78,136,201)" fill="rgb(78,136,201)" points="486.1438,456.2252 492.6138,459.4602 500.4022,446.0271 493.9323,442.7921 " />
  <polygon stroke="rgb(61,106,156)" fill="rgb(61,106,156)" points="238.7995,450.8396 227.9573,443.3154 217.115,439.9975 207.3341,441.2107 199.5719,446.8363 194.5883,456.3237 192.871,468.744 263.0435,503.8301 261.3262,489.6925 256.3426,475.2215 248.5804,461.8338 " />
  <polygon stroke="rgb(39,69,102)" fill="rgb(39,69,102)" points="227.9573,443.3154 235.771,439.4086 224.9287,436.0906 217.115,439.9975 " />
  <polygon stroke="rgb(84,147,216)" fill="rgb(84,147,216)" points="246.6132,446.9328 288.3831,400.2067 268.2099,386.207 235.771,439.4086 " />
  <polygon stroke="rgb(58,102,150)" fill="rgb(58,102,150)" points="238.7995,450.8396 246.6132,446.9328 235.771,439.4086 227.9573,443.3154 " />
  <polygon stroke="rgb(91,158,234)" fill="rgb(91,158,234)" points="270.8572,499.9232 333.4919,498.8016 330.2968,472.4969 269.14,485.7856 " />
  <polygon stroke="rgb(94,164,242)" fill="rgb(94,164,242)" points="256.3941,457.9269 306.5817,420.6625 288.3831,400.2067 246.6132,446.9328 " />
  <polygon stroke="rgb(68,118,174)" fill="rgb(68,118,174)" points="263.0435,503.8301 270.8572,499.9232 269.14,485.7856 261.3262,489.6925 " />
  <polygon stroke="rgb(72,125,184)" fill="rgb(72,125,184)" points="248.5804,461.8338 256.3941,457.9269 246.6132,446.9328 238.7995,450.8396 " />
  <polygon stroke="rgb(97,170,251)" fill="rgb(97,170,251)" points="269.14,485.7856 330.2968,472.4969 321.0241,445.5721 264.1563,471.3147 " />
  <polygon stroke="rgb(98,172,253)" fill="rgb(98,172,253)" points="264.1563,471.3147 321.0241,445.5721 306.5817,420.6625 256.3941,457.9269 " />
  <polygon stroke="rgb(76,133,197)" fill="rgb(76,133,197)" points="261.3262,489.6925 269.14,485.7856 264.1563,471.3147 256.3426,475.2215 " />
  <polygon stroke="rgb(78,136,201)" fill="rgb(78,136,201)" points="256.3426,475.2215 264.1563,471.3147 256.3941,457.9269 248.5804,461.8338 " />
</g>

</g>  <!-- end HabitationCyl2 -->

</g>

</svg>

